<svg width="147" height="33" viewBox="0 0 147 33" fill="none" xmlns="http://www.w3.org/2000/svg">
<path fill-rule="evenodd" clip-rule="evenodd" d="M9.39145 0.196366C6.78684 0.313886 4.5293 0.950678 2.70639 2.76589C0.877112 4.59063 0.248226 6.8571 0.130413 9.43461C0.0571782 11.0434 -0.371063 23.1972 0.870746 26.3846C1.70817 28.5348 3.35751 30.1882 5.52748 31.0283C6.54004 31.4221 7.6959 31.6887 9.39145 31.7666C23.5688 32.4082 28.8241 32.0589 31.0403 26.3846C31.4335 25.3745 31.7042 24.2197 31.779 22.5283C32.427 8.3147 31.674 5.23382 29.2031 2.76589C27.2432 0.810919 24.9379 -0.519871 9.39145 0.196366ZM9.52197 28.908C7.96971 28.8381 7.12752 28.5795 6.56552 28.3619C5.15177 27.8124 4.08987 26.7549 3.54379 25.3494C2.59811 22.9275 2.91176 11.4248 2.99614 9.56352C3.07892 7.74036 3.44828 6.07412 4.73466 4.78776C6.32672 3.19963 8.38365 2.42131 22.389 3.05339C24.2167 3.13596 25.8868 3.50456 27.1764 4.78776C28.7684 6.37586 29.5581 8.44861 28.9149 22.4002C28.8448 23.9486 28.5853 24.7888 28.3672 25.3494C26.9264 29.0418 23.6117 29.5543 9.52197 28.908ZM22.5435 7.50337C22.5435 8.55471 23.3984 9.40961 24.454 9.40961C25.5095 9.40961 26.366 8.55471 26.366 7.50337C26.366 6.45205 25.5095 5.59791 24.454 5.59791C23.3984 5.59791 22.5435 6.45205 22.5435 7.50337ZM7.78027 15.9807C7.78027 20.4846 11.4404 24.1361 15.9555 24.1361C20.4706 24.1361 24.1308 20.4846 24.1308 15.9807C24.1308 11.4768 20.4706 7.82759 15.9555 7.82759C11.4404 7.82759 7.78027 11.4768 7.78027 15.9807ZM10.6492 15.9807C10.6492 13.0586 13.0245 10.6877 15.9555 10.6877C18.8865 10.6877 21.2619 13.0586 21.2619 15.9807C21.2619 18.9044 18.8865 21.276 15.9555 21.276C13.0245 21.276 10.6492 18.9044 10.6492 15.9807Z" fill="white"/>
<path d="M74.1243 0.329834C70.5603 0.329834 67.0762 1.26821 64.1128 3.02631C61.1494 4.78441 58.8397 7.28327 57.4758 10.2069C56.1119 13.1304 55.7551 16.3476 56.4504 19.4512C57.1457 22.555 58.8619 25.4058 61.3821 27.6436C63.9023 29.8812 67.1131 31.405 70.6088 32.0224C74.1042 32.6398 77.7276 32.3228 81.0203 31.1118C84.3131 29.9008 87.1274 27.8502 89.1076 25.219C91.0875 22.5878 92.1444 19.4944 92.1444 16.3298C92.1444 12.0864 90.2458 8.01671 86.8665 5.01613C83.4871 2.01553 78.9034 0.329834 74.1243 0.329834ZM82.9767 11.2898L80.0259 23.6698C79.8006 24.5498 79.215 24.7498 78.3815 24.3498L73.8765 21.3898L71.624 23.2498C71.5179 23.3728 71.3816 23.4728 71.2255 23.5422C71.0694 23.6114 70.8975 23.6482 70.723 23.6498L71.0383 19.6498L79.3726 12.9498C79.7556 12.6698 79.3726 12.5098 78.832 12.7898L68.6056 18.4898L64.1006 17.2498C63.132 16.9898 63.1095 16.3898 64.3033 15.9898L81.6702 9.98982C82.5262 9.76982 83.247 10.2098 82.9767 11.2898Z" fill="white"/>
<path d="M128.048 18.9214C128.048 18.9214 128.593 18.9694 128.885 18.5918L129.457 17.8398C129.732 17.4686 130.395 17.2318 131.047 17.6094C131.535 17.9007 132.008 18.2174 132.466 18.5582C132.897 18.8894 133.781 19.6622 133.784 19.6622C134.206 20.035 134.304 20.5806 134.016 21.1566L134.013 21.1694C133.697 21.7425 133.296 22.2594 132.825 22.7006L132.814 22.7086C132.406 23.0659 132.003 23.2691 131.608 23.3182C131.55 23.3292 131.491 23.3335 131.432 23.331C131.258 23.3325 131.085 23.3044 130.92 23.2478L130.906 23.2286C130.298 23.0478 129.282 22.5982 127.59 21.6222C126.611 21.0635 125.679 20.4191 124.804 19.6958C124.365 19.3335 123.947 18.9451 123.55 18.5326L123.509 18.4894L123.466 18.4446L123.423 18.4014L123.382 18.3566C122.988 17.9419 122.617 17.5039 122.27 17.0446C121.579 16.129 120.964 15.1538 120.43 14.1295C119.497 12.3583 119.067 11.2975 118.894 10.6575L118.876 10.6447C118.823 10.4716 118.796 10.2906 118.798 10.1087C118.795 10.0471 118.799 9.9854 118.809 9.92469C118.858 9.5119 119.052 9.09057 119.393 8.6607L119.401 8.6495C119.822 8.15632 120.316 7.73664 120.864 7.40631L120.875 7.40471C121.425 7.10391 121.948 7.20631 122.303 7.64471C122.306 7.64631 123.043 8.5727 123.358 9.0239C123.683 9.50321 123.986 9.99929 124.264 10.5103C124.627 11.1903 124.4 11.8863 124.044 12.1743L123.325 12.7711C122.963 13.0783 123.011 13.6479 123.011 13.6479C123.011 13.6479 124.075 17.8606 128.048 18.9214ZM126.706 6.32152C126.655 6.32089 126.604 6.33083 126.557 6.35079C126.51 6.37075 126.466 6.40033 126.43 6.43781C126.394 6.47529 126.365 6.51994 126.345 6.56918C126.325 6.61843 126.315 6.67129 126.315 6.72472C126.314 6.77787 126.324 6.83056 126.343 6.87975C126.363 6.92894 126.391 6.97368 126.427 7.01142C126.463 7.04916 126.505 7.07915 126.552 7.09969C126.599 7.12023 126.649 7.1309 126.7 7.13111C128.769 7.14711 130.452 7.84631 131.831 9.2527C133.198 10.6479 133.897 12.5439 133.915 15.0303C133.915 15.0834 133.926 15.136 133.945 15.185C133.965 15.2341 133.994 15.2786 134.03 15.316C134.066 15.3535 134.108 15.3831 134.155 15.4033C134.202 15.4234 134.253 15.4337 134.304 15.4335C134.354 15.4332 134.405 15.4225 134.452 15.4019C134.499 15.3812 134.541 15.3511 134.577 15.3132C134.613 15.2753 134.641 15.2304 134.66 15.181C134.68 15.1316 134.689 15.0787 134.689 15.0255C134.669 12.3791 133.898 10.2319 132.371 8.6735C130.857 7.12951 128.943 6.33752 126.706 6.32152ZM127.414 8.4223C127.363 8.41838 127.312 8.42495 127.264 8.44165C127.216 8.45835 127.171 8.48484 127.133 8.51961C127.094 8.55439 127.063 8.59676 127.04 8.6443C127.017 8.69185 127.003 8.74363 127 8.7967C126.996 8.84976 127.002 8.90308 127.018 8.9536C127.034 9.00411 127.059 9.05085 127.093 9.09112C127.126 9.13139 127.166 9.16441 127.212 9.18829C127.257 9.21217 127.307 9.22645 127.357 9.2303C128.834 9.3439 129.929 9.84949 130.729 10.7615C131.53 11.6783 131.911 12.7935 131.882 14.1871C131.881 14.2402 131.89 14.2931 131.908 14.3426C131.927 14.3921 131.954 14.4373 131.99 14.4757C132.025 14.514 132.067 14.5447 132.113 14.566C132.16 14.5873 132.21 14.5988 132.261 14.5999C132.363 14.602 132.462 14.5618 132.536 14.4881C132.609 14.4144 132.653 14.3131 132.655 14.2063C132.687 12.6415 132.233 11.2831 131.299 10.2159C130.356 9.1375 129.036 8.5455 127.415 8.4223H127.414ZM127.993 10.5935C127.943 10.5907 127.892 10.5984 127.844 10.6162C127.796 10.634 127.752 10.6615 127.714 10.6972C127.676 10.7328 127.645 10.776 127.624 10.8241C127.602 10.8722 127.589 10.9243 127.587 10.9775C127.581 11.0846 127.617 11.1896 127.685 11.2694C127.754 11.3492 127.85 11.3973 127.952 11.4031C128.619 11.4399 129.068 11.6367 129.374 11.9647C129.677 12.2943 129.863 12.7903 129.899 13.5183C129.904 13.6251 129.949 13.7254 130.025 13.7974C130.1 13.8694 130.2 13.9071 130.302 13.9023C130.404 13.8969 130.5 13.8496 130.568 13.7708C130.637 13.692 130.673 13.5881 130.669 13.4815C130.628 12.6223 130.394 11.9071 129.929 11.4015C129.463 10.8991 128.793 10.6367 127.993 10.5935ZM138.14 3.71354C137.38 2.98074 134.308 0.647961 127.467 0.615961C127.467 0.615961 119.402 0.107165 115.47 3.88154C113.282 6.17272 112.511 9.5247 112.43 13.6815C112.349 17.8366 112.243 25.6254 119.417 27.7374H119.425L119.42 30.9613C119.42 30.9613 119.375 32.2653 120.196 32.5309C121.189 32.8541 121.771 31.8621 122.718 30.7933C123.24 30.2061 123.958 29.3454 124.5 28.6862C129.408 29.1182 133.181 28.131 133.609 27.9838C134.6 27.6478 140.207 26.8958 141.117 19.1086C142.059 11.0815 140.663 6.00312 138.14 3.71354ZM138.972 18.5326C138.201 25.035 133.654 25.4446 132.816 25.7262C132.46 25.8462 129.145 26.7086 124.977 26.4238C124.977 26.4238 121.871 30.3437 120.901 31.3645C120.749 31.5245 120.572 31.5885 120.453 31.5565C120.284 31.5133 120.238 31.3069 120.242 31.0045L120.268 25.6494C114.197 23.8862 114.552 17.2558 114.621 13.7855C114.69 10.3135 115.314 7.47031 117.165 5.55673C120.491 2.40475 127.341 2.87514 127.341 2.87514C133.126 2.90234 135.9 4.72633 136.542 5.33593C138.676 7.24951 139.765 11.8255 138.97 18.531L138.972 18.5326Z" fill="white"/>
</svg>
