<svg width="128" height="66" viewBox="0 0 128 66" fill="none" xmlns="http://www.w3.org/2000/svg">
<path d="M29.1888 65.0053C40.3242 65.0053 50.0198 58.0722 54.94 47.4058H112.401C114.651 47.4058 117.274 46.482 118.929 44.7775L125.879 37.7377C127.226 36.3511 127.999 34.4493 128 32.4216C127.999 30.3928 127.226 28.491 125.88 27.1065L118.932 19.9568C118.871 19.8939 118.8 19.8374 118.736 19.7755L113.937 11.3981C112.792 9.39816 110.909 8.20353 108.901 8.20353C106.893 8.20353 105.01 9.39817 103.866 11.397L102.004 14.646L100.143 11.3981C98.9979 9.39816 97.1153 8.20353 95.107 8.20353C93.0988 8.20353 91.2162 9.39817 90.0716 11.397L88.21 14.646L86.3475 11.3949C85.201 9.39603 83.3184 8.20353 81.313 8.20353C79.3047 8.20353 77.4222 9.61683 76.2776 11.6157L73.0086 17.5398H54.939C50.0208 6.8745 40.3242 0 29.1888 0C13.0941 0 0 14.5586 0 32.5859C0 50.6142 13.0941 65.0053 29.1888 65.0053ZM29.1888 20.7099C34.9907 20.7099 39.6938 25.978 39.6938 32.4771C39.6938 38.9761 34.9907 44.2442 29.1888 44.2442C23.3868 44.2442 18.6837 38.9761 18.6837 32.4771C18.6837 25.978 23.3868 20.7099 29.1888 20.7099Z" fill="white"/>
</svg>
