<svg width="128" height="120" viewBox="0 0 128 120" fill="none" xmlns="http://www.w3.org/2000/svg">
<path d="M125.691 54.2597L108.296 6.9079C106.846 2.94474 102.703 0 98.8865 0H29.5819C25.7665 0 21.6424 2.94474 20.1922 6.9079L2.54311 54.3395C1.27085 57.8187 0 63.4089 0 67.1684V92.7868C0 97.3579 3.86108 101.053 7.93314 101.053H9.8461V104.211C9.8461 112.917 16.156 120 23.912 120C31.6679 120 37.9778 112.917 37.9778 104.211V101.053H88.6149V104.58C88.6149 113.096 94.9994 120 102.586 120H103.245C110.832 120 116.747 113.096 116.747 104.58V101.053H120.536C124.608 101.053 128 97.3579 128 92.7868V67.1684C127.999 63.4089 126.963 57.7389 125.691 54.2597ZM25.1765 85.9374C19.2034 85.9374 14.3612 80.5018 14.3612 73.7969C14.3612 67.0919 19.2034 61.6571 25.1765 61.6571C31.1495 61.6571 35.9917 67.0926 35.9917 73.7969C35.9917 80.5018 31.1495 85.9374 25.1765 85.9374ZM23.9795 46.579L35.2251 11.8421H93.2433L104.489 46.579H23.9795ZM103.697 85.9374C97.7239 85.9374 92.8825 80.5018 92.8825 73.7969C92.8825 67.0919 97.7246 61.6571 103.697 61.6571C109.67 61.6571 114.512 67.0926 114.512 73.7969C114.512 80.5018 109.669 85.9374 103.697 85.9374Z" fill="white"/>
</svg>
